<?xml version="1.0" standalone="no"?>
<!DOCTYPE svg PUBLIC "-//W3C//DTD SVG 20010904//EN"
 "http://www.w3.org/TR/2001/REC-SVG-20010904/DTD/svg10.dtd">
<svg version="1.0" xmlns="http://www.w3.org/2000/svg"
 width="1024.000000pt" height="1024.000000pt" viewBox="0 0 1024.000000 1024.000000"
 preserveAspectRatio="xMidYMid meet">

<g transform="translate(0.000000,1024.000000) scale(0.100000,-0.100000)"
fill="#000000" stroke="none">
<path d="M6702 7689 c-86 -15 -152 -53 -286 -165 -255 -213 -268 -230 -230
-292 16 -25 184 -180 391 -360 70 -62 84 -78 81 -100 -2 -16 -13 -32 -30 -42
-37 -20 -34 -22 -283 200 -114 102 -219 193 -234 202 -40 27 -100 23 -148 -9
-44 -30 -242 -196 -486 -408 -82 -71 -164 -143 -182 -158 l-33 -28 -139 104
c-418 313 -785 467 -1184 497 -342 26 -705 -65 -963 -243 -176 -122 -358 -344
-427 -521 -53 -137 -72 -250 -66 -406 5 -157 27 -251 86 -369 121 -240 342
-434 616 -541 33 -13 62 -24 63 -26 2 -1 -32 -53 -75 -116 -94 -134 -357 -527
-508 -758 -90 -137 -109 -173 -113 -212 -4 -42 -1 -50 26 -78 46 -45 86 -41
234 24 648 283 1019 467 1254 622 95 63 344 260 539 428 158 135 375 325 420
368 l31 28 69 -51 c573 -419 1079 -613 1553 -596 303 10 528 77 748 222 216
144 388 363 463 590 120 368 56 744 -173 1019 -123 147 -274 263 -443 339 -87
39 -225 77 -281 77 -19 0 -32 4 -30 9 2 5 44 44 93 88 72 63 97 93 125 147 32
62 35 77 35 151 0 73 -4 88 -34 149 -37 71 -114 151 -138 141 -8 -2 -12 -1 -9
4 7 11 -22 23 -36 14 -7 -3 -8 -1 -4 5 6 11 -6 16 -26 13 -5 0 -8 3 -8 8 0 24
-177 45 -258 30z m372 -98 c3 -5 -1 -14 -8 -20 -12 -10 -14 -9 -11 6 2 10 4
19 4 21 2 5 10 2 15 -7z m-4 -45 c0 -2 -8 -10 -17 -17 -16 -13 -17 -12 -4 4
13 16 21 21 21 13z m84 -62 c3 -8 2 -12 -4 -9 -6 3 -10 10 -10 16 0 14 7 11
14 -7z m-418 -143 c57 -26 88 -72 87 -132 -1 -81 -56 -129 -150 -129 -171 0
-227 204 -73 272 29 13 95 7 136 -11z m-2616 -486 c171 -38 385 -127 555 -230
80 -48 319 -208 363 -243 l24 -18 -93 -83 -92 -82 -26 24 c-86 80 -351 252
-508 330 -301 151 -644 168 -923 48 -291 -125 -480 -396 -480 -686 0 -84 41
-222 93 -314 54 -96 182 -231 276 -293 79 -52 80 -55 11 -34 -126 39 -243 108
-342 203 -166 161 -249 359 -235 563 15 213 108 397 287 563 150 139 325 221
560 263 105 18 430 12 530 -11z m2038 -78 c50 -44 92 -84 92 -88 0 -5 -94 -89
-208 -186 -114 -98 -298 -254 -407 -348 -109 -93 -215 -183 -234 -200 -20 -16
-115 -98 -211 -180 -436 -376 -549 -473 -775 -665 -133 -113 -283 -241 -334
-284 l-93 -79 -101 108 c-55 59 -136 135 -178 170 l-78 63 31 27 30 27 128 -7
c70 -4 147 -4 170 0 42 7 120 71 670 546 41 36 172 148 290 249 118 101 262
225 319 275 58 49 150 128 205 175 56 46 193 163 305 260 112 96 218 187 235
201 17 15 36 24 41 21 6 -3 52 -42 103 -85z m817 -92 c286 -35 568 -272 670
-564 69 -196 55 -423 -38 -623 -62 -136 -184 -282 -313 -375 -74 -54 -222
-121 -331 -150 -92 -25 -112 -27 -318 -27 -191 -1 -233 2 -321 22 -203 44
-433 136 -612 244 -227 137 -436 282 -430 298 2 4 41 42 88 82 l85 75 144 -99
c243 -167 418 -261 603 -323 161 -53 266 -68 448 -62 172 6 247 22 376 82 386
178 546 598 369 973 -56 119 -170 249 -289 331 -53 37 -196 111 -213 111 -7 0
-13 5 -13 10 0 6 10 8 23 6 12 -3 45 -8 72 -11z m-250 -209 c210 -55 401 -226
456 -408 17 -56 21 -88 17 -167 -3 -89 -7 -105 -41 -174 -83 -167 -241 -274
-441 -296 -261 -30 -536 62 -891 299 -72 48 -136 94 -143 103 -12 14 22 46
260 254 150 131 314 274 365 316 51 43 95 83 99 89 10 15 243 3 319 -16z
m-2681 -81 c134 -39 294 -124 487 -259 121 -83 145 -104 134 -115 -29 -27
-685 -588 -713 -609 -31 -24 -37 -25 -127 -19 -115 8 -198 28 -279 69 -244
123 -379 362 -322 573 35 131 125 240 267 322 132 76 367 92 553 38z m-399
-1659 c113 -109 119 -117 101 -130 -10 -8 -91 -52 -181 -97 l-162 -82 -69 73
c-38 40 -69 76 -69 81 0 5 47 76 103 159 l104 150 26 -19 c15 -10 81 -71 147
-135z m-507 -396 l22 -30 -71 -35 c-39 -20 -67 -30 -62 -23 8 14 86 118 88
118 1 0 11 -13 23 -30z"/>
<path d="M6295 6031 c-64 -27 -82 -114 -32 -157 51 -44 121 -27 147 36 28 68
-49 149 -115 121z"/>
<path d="M4013 6025 c-26 -19 -47 -77 -38 -107 18 -57 80 -81 134 -53 37 19
51 43 51 88 0 67 -91 111 -147 72z"/>
<path d="M6810 4429 c-458 -51 -848 -237 -1162 -556 -119 -119 -165 -177 -240
-301 l-50 -83 -92 88 c-248 237 -574 385 -945 428 -277 33 -545 7 -816 -76
-122 -38 -214 -79 -238 -107 -48 -54 -37 -149 22 -189 46 -31 76 -29 173 11
619 256 1360 99 1748 -370 76 -92 108 -115 163 -117 73 -3 111 31 189 169 129
226 225 348 378 476 124 104 210 159 345 224 270 129 536 176 867 153 188 -14
205 -11 238 43 30 49 26 100 -10 142 -17 19 -45 40 -63 45 -83 27 -348 38
-507 20z"/>
<path d="M7606 4130 c-60 -18 -104 -90 -89 -148 5 -22 3 -23 -28 -18 -275 47
-481 44 -745 -10 -318 -64 -572 -189 -815 -399 -138 -119 -246 -262 -345 -459
-66 -131 -74 -143 -111 -167 -34 -23 -103 -25 -142 -4 -16 8 -71 63 -123 122
-155 178 -321 298 -516 374 -439 171 -915 156 -1412 -45 l-85 -34 -7 41 c-11
60 -63 107 -119 107 -98 0 -131 -37 -297 -332 -176 -310 -187 -334 -187 -399
0 -45 5 -62 27 -91 46 -60 72 -63 265 -34 92 14 267 39 388 56 121 17 312 45
425 61 113 16 351 50 530 74 179 25 404 56 500 70 271 37 251 39 301 -25 63
-82 127 -137 199 -173 61 -30 71 -32 175 -32 101 0 115 2 170 29 94 46 163
123 230 260 31 64 61 118 65 121 9 5 259 43 600 89 102 14 316 43 475 66 160
22 474 65 698 95 224 30 429 60 455 66 72 16 122 73 122 139 0 59 -38 113
-264 369 -208 236 -243 260 -340 231z m-162 -405 c114 -21 296 -68 360 -92
l48 -20 -83 -12 c-46 -6 -241 -32 -434 -57 -337 -43 -1107 -147 -1190 -161
-38 -6 -39 -5 -25 12 51 61 334 217 490 269 83 28 245 62 360 76 104 12 367 4
474 -15z m-3251 -446 c133 -11 304 -51 417 -97 41 -17 71 -31 65 -32 -5 0 -53
-7 -105 -14 -52 -8 -167 -24 -255 -36 -226 -29 -1151 -157 -1266 -175 -53 -8
-102 -15 -110 -15 -21 0 144 106 242 155 257 129 519 201 794 218 28 2 61 4
75 5 14 1 78 -3 143 -9z"/>
</g>
</svg>
