<?xml version="1.0" standalone="no"?>
<!DOCTYPE svg PUBLIC "-//W3C//DTD SVG 20010904//EN"
 "http://www.w3.org/TR/2001/REC-SVG-20010904/DTD/svg10.dtd">
<svg version="1.0" xmlns="http://www.w3.org/2000/svg"
 width="1024.000000pt" height="1024.000000pt" viewBox="0 0 1024.000000 1024.000000"
 preserveAspectRatio="xMidYMid meet">

<g transform="translate(0.000000,1024.000000) scale(0.100000,-0.100000)"
fill="#000000" stroke="none">
<path d="M0 5120 l0 -5120 5120 0 5120 0 0 5120 0 5120 -5120 0 -5120 0 0
-5120z m7428 2460 c117 -62 172 -157 172 -299 0 -69 -22 -171 -37 -171 -13 0
-472 465 -465 471 22 21 113 39 187 36 68 -3 89 -8 143 -37z m-2111 -151 c247
-21 514 -82 726 -168 112 -45 137 -63 137 -100 -1 -48 -45 -82 -108 -83 -21 0
-86 19 -153 46 -135 53 -301 98 -449 121 -146 22 -430 30 -565 16 -421 -45
-833 -208 -1165 -459 -96 -74 -284 -255 -371 -358 -341 -407 -523 -938 -506
-1479 6 -206 26 -350 78 -554 45 -178 47 -197 17 -228 -43 -46 -109 -26 -139
41 -27 62 -86 309 -104 439 -34 239 -29 572 11 792 71 385 243 766 478 1060
78 97 275 294 371 372 283 228 659 414 987 487 268 60 501 77 755 55z m1649
-78 c46 -34 434 -425 458 -461 19 -29 21 -96 3 -127 -7 -11 -66 -77 -131 -145
-371 -383 -924 -952 -1246 -1283 -96 -99 -292 -301 -435 -450 -143 -148 -326
-337 -406 -420 -80 -82 -168 -174 -196 -202 -27 -29 -54 -53 -59 -53 -5 0 -70
61 -144 135 l-134 135 204 207 c113 115 295 300 406 413 110 113 339 347 509
520 171 173 429 436 575 585 145 148 315 321 377 382 121 122 139 154 122 218
-18 63 -81 102 -146 90 -38 -7 -103 -64 -103 -90 0 -7 -51 -65 -112 -127 -515
-520 -1916 -1949 -1938 -1977 -3 -3 -17 -16 -31 -29 l-26 -22 -86 87 -86 88
142 145 c78 80 322 330 542 555 220 226 512 525 650 665 138 140 307 313 375
385 122 127 255 265 532 550 75 77 146 153 159 169 69 88 154 110 225 57z
m-4081 -76 c75 -36 79 -152 6 -189 -39 -21 -66 -20 -102 1 -29 17 -59 67 -59
98 0 28 29 74 58 89 35 20 56 20 97 1z m2471 -189 c127 -17 266 -47 379 -81
81 -25 272 -98 283 -109 3 -4 -59 -73 -139 -154 -79 -81 -216 -221 -303 -312
-161 -167 -363 -372 -846 -865 -146 -148 -343 -349 -437 -446 -140 -145 -183
-183 -239 -213 -77 -40 -387 -311 -422 -368 -41 -67 -54 -129 -61 -293 -7
-134 -11 -167 -30 -206 -28 -60 -109 -153 -193 -224 -49 -41 -81 -79 -116
-137 -26 -45 -53 -83 -59 -85 -20 -7 -243 336 -243 374 0 9 20 13 75 13 88 0
131 15 168 59 39 47 36 103 -12 254 -98 303 -124 455 -125 722 -1 216 12 321
60 511 61 245 174 491 320 701 308 442 874 782 1425 857 138 19 379 19 515 2z
m1904 -946 c56 -60 167 -350 210 -548 181 -836 -72 -1692 -674 -2275 -426
-414 -961 -651 -1546 -687 -244 -14 -536 11 -737 64 -188 50 -223 60 -223 67
0 4 39 24 88 45 107 47 146 49 362 14 215 -34 523 -34 710 -1 464 82 828 258
1175 567 381 339 640 837 711 1369 20 155 23 456 5 595 -28 214 -94 446 -180
633 -23 49 -41 98 -41 108 0 20 73 79 97 79 8 0 28 -13 43 -30z m-236 -292
c74 -156 129 -363 142 -542 5 -66 3 -88 -10 -114 -33 -63 -271 -362 -398 -499
-32 -34 -60 -73 -64 -88 -13 -54 37 -122 100 -132 51 -8 77 13 230 186 l129
145 -6 -81 c-8 -102 -56 -293 -108 -431 -107 -282 -253 -508 -463 -717 -429
-427 -1008 -645 -1608 -606 -157 11 -335 38 -323 50 7 6 8 6 295 118 438 171
716 310 1010 505 144 95 176 147 133 219 -39 65 -113 63 -202 -5 -211 -162
-580 -344 -1141 -562 -353 -137 -537 -217 -840 -369 -135 -67 -267 -130 -295
-138 -117 -36 -215 -29 -308 21 -171 92 -209 319 -84 494 17 25 94 110 170
188 l139 143 114 -114 113 -114 -110 -90 c-104 -85 -114 -90 -167 -96 -92 -9
-132 -49 -132 -132 0 -109 122 -161 245 -103 88 41 318 202 420 293 217 195
235 204 444 224 129 12 199 34 263 84 48 38 218 225 258 285 14 21 167 183
340 361 173 178 463 477 645 664 181 187 422 435 536 550 320 327 464 476 467
486 9 23 25 2 66 -83z m-2566 -1481 c285 -285 302 -305 302 -339 0 -39 -27
-79 -129 -190 -71 -77 -110 -94 -257 -107 -187 -17 -287 -55 -397 -152 l-39
-34 -124 125 c-68 69 -124 128 -124 131 0 3 20 41 45 84 55 96 75 182 75 317
1 120 9 166 42 214 29 44 276 254 298 254 3 0 141 -136 308 -303z m-1726 -593
c78 -40 114 -164 66 -233 -34 -50 -71 -73 -125 -78 -150 -15 -239 158 -140
271 54 62 127 76 199 40z m-179 -714 c14 -11 31 -36 37 -55 19 -57 -6 -106
-67 -132 -61 -25 -130 22 -140 96 -5 36 -2 44 30 76 28 28 43 35 75 35 24 0
49 -8 65 -20z m4910 9 c13 -6 31 -23 40 -39 43 -72 -4 -159 -86 -160 -49 0
-73 13 -92 50 -50 97 40 194 138 149z"/>
<path d="M3881 6329 c-137 -23 -260 -119 -327 -255 -64 -128 -58 -284 13 -416
31 -58 123 -147 181 -177 259 -132 572 9 648 292 61 229 -88 488 -311 545 -64
16 -146 21 -204 11z"/>
<path d="M6182 4580 c-61 -38 -63 -84 -7 -181 l33 -56 -52 -7 c-28 -3 -68 -6
-88 -6 -45 0 -94 -38 -103 -79 -9 -44 18 -98 58 -117 31 -15 49 -15 148 -6 63
6 118 7 124 2 6 -5 34 -53 63 -108 56 -103 76 -122 132 -122 18 0 39 11 59 31
41 40 41 86 1 154 -16 28 -30 53 -30 58 0 4 15 7 33 7 79 0 129 76 97 147 -23
51 -57 65 -150 61 l-73 -3 -52 99 c-29 54 -61 107 -72 117 -29 30 -82 34 -121
9z"/>
</g>
</svg>
